{"scenes":[{"nodes":[0]}],"nodes":[{"name":"AnSceneNodeSzene%201","children":[1,3,5,7,9,11,13]},{"name":"AnGraphicTween206","children":[2],"translation":[-56.849998,-400.549988,0]},{"name":"AnNode2","mesh":0,"translation":[-94.150002,53.549999,0],"scale":[1.882484,1.07142,1]},{"name":"AnGraphicTween205","children":[4],"translation":[139.100006,-289.549988,0],"scale":[0,0,0]},{"name":"AnNode4","mesh":0,"translation":[-94.099998,53.549999,0],"scale":[0,0,0]},{"name":"AnGraphicTween204","children":[6],"translation":[248.100006,-130.550003,0],"scale":[0,0,0]},{"name":"AnNode6","mesh":0,"translation":[-94.099998,53.549999,0],"scale":[0,0,0]},{"name":"AnGraphicTween203","children":[8],"translation":[248.100006,-355.549988,0],"scale":[0,0,0]},{"name":"AnNode8","mesh":0,"translation":[-94.099998,53.549999,0],"scale":[0,0,0]},{"name":"AnGraphicTween201","children":[10],"translation":[416.100006,-242.550003,0],"scale":[0,0,0]},{"name":"AnNode10","mesh":0,"translation":[-94.099998,53.549999,0],"scale":[0,0,0]},{"name":"AnGraphicTween202","children":[12],"translation":[552.099976,-389.549988,0],"scale":[0,0,0]},{"name":"AnNode12","mesh":0,"translation":[-94.099998,53.549999,0],"scale":[0,0,0]},{"name":"AnDummyNode","mesh":1,"scale":[0,0,0]}],"meshes":[{"primitives":[{"attributes":{"POSITION":1,"TEXCOORD_0":49},"indices":0,"material":0}]},{"primitives":[{"attributes":{"POSITION":4},"indices":3,"material":1}]}],"animations":[{"name":"AnSceneNodeSzene%201","samplers":[{"input":5,"interpolation":"STEP","output":6},{"input":7,"interpolation":"STEP","output":8},{"input":9,"interpolation":"STEP","output":10},{"input":11,"interpolation":"STEP","output":12},{"input":13,"interpolation":"STEP","output":14},{"input":15,"interpolation":"STEP","output":16},{"input":17,"interpolation":"STEP","output":18},{"input":19,"interpolation":"STEP","output":20},{"input":21,"interpolation":"STEP","output":22},{"input":23,"interpolation":"STEP","output":24},{"input":25,"interpolation":"STEP","output":26},{"input":27,"interpolation":"STEP","output":28},{"input":29,"interpolation":"STEP","output":30},{"input":31,"interpolation":"STEP","output":32},{"input":33,"interpolation":"STEP","output":34},{"input":35,"interpolation":"STEP","output":36},{"input":37,"interpolation":"STEP","output":38},{"input":39,"interpolation":"STEP","output":40},{"input":41,"interpolation":"STEP","output":42},{"input":43,"interpolation":"STEP","output":44},{"input":45,"interpolation":"STEP","output":46},{"input":47,"interpolation":"STEP","output":48}],"channels":[{"sampler":0,"target":{"node":1,"path":"scale"}},{"sampler":1,"target":{"node":1,"path":"translation"}},{"sampler":2,"target":{"node":4,"path":"scale"}},{"sampler":3,"target":{"node":4,"path":"translation"}},{"sampler":4,"target":{"node":3,"path":"scale"}},{"sampler":5,"target":{"node":3,"path":"translation"}},{"sampler":6,"target":{"node":6,"path":"scale"}},{"sampler":7,"target":{"node":6,"path":"translation"}},{"sampler":8,"target":{"node":5,"path":"scale"}},{"sampler":9,"target":{"node":5,"path":"translation"}},{"sampler":10,"target":{"node":8,"path":"scale"}},{"sampler":11,"target":{"node":8,"path":"translation"}},{"sampler":12,"target":{"node":7,"path":"scale"}},{"sampler":13,"target":{"node":7,"path":"translation"}},{"sampler":14,"target":{"node":10,"path":"scale"}},{"sampler":15,"target":{"node":10,"path":"translation"}},{"sampler":16,"target":{"node":9,"path":"scale"}},{"sampler":17,"target":{"node":9,"path":"translation"}},{"sampler":18,"target":{"node":12,"path":"scale"}},{"sampler":19,"target":{"node":12,"path":"translation"}},{"sampler":20,"target":{"node":11,"path":"scale"}},{"sampler":21,"target":{"node":11,"path":"translation"}}]}],"buffers":[{"uri":"Scene_1.bin","byteLength":7280}],"bufferViews":[{"buffer":0,"byteOffset":0,"byteLength":24,"target":34963},{"buffer":0,"byteOffset":24,"byteLength":48,"target":34962},{"buffer":0,"byteOffset":72,"byteLength":32},{"buffer":0,"byteOffset":104,"byteLength":24,"target":34963},{"buffer":0,"byteOffset":128,"byteLength":48,"target":34962},{"buffer":0,"byteOffset":176,"byteLength":48},{"buffer":0,"byteOffset":224,"byteLength":1184},{"buffer":0,"byteOffset":1408,"byteLength":48},{"buffer":0,"byteOffset":1456,"byteLength":48},{"buffer":0,"byteOffset":1504,"byteLength":64},{"buffer":0,"byteOffset":1568,"byteLength":1136},{"buffer":0,"byteOffset":2704,"byteLength":48},{"buffer":0,"byteOffset":2752,"byteLength":48},{"buffer":0,"byteOffset":2800,"byteLength":64},{"buffer":0,"byteOffset":2864,"byteLength":1456},{"buffer":0,"byteOffset":4320,"byteLength":48},{"buffer":0,"byteOffset":4368,"byteLength":48},{"buffer":0,"byteOffset":4416,"byteLength":64},{"buffer":0,"byteOffset":4480,"byteLength":1296},{"buffer":0,"byteOffset":5776,"byteLength":48},{"buffer":0,"byteOffset":5824,"byteLength":48},{"buffer":0,"byteOffset":5872,"byteLength":64},{"buffer":0,"byteOffset":5936,"byteLength":1136},{"buffer":0,"byteOffset":7072,"byteLength":48},{"buffer":0,"byteOffset":7120,"byteLength":48},{"buffer":0,"byteOffset":7168,"byteLength":48},{"buffer":0,"byteOffset":7216,"byteLength":32},{"buffer":0,"byteOffset":7248,"byteLength":32}],"accessors":[{"name":"accessor_0","bufferView":0,"byteOffset":0,"componentType":5125,"count":6,"type":"SCALAR","max":[3],"min":[0]},{"name":"accessor_1","bufferView":1,"byteOffset":0,"componentType":5126,"count":4,"type":"VEC3","max":[100,0,0],"min":[0,-100,0]},{"name":"accessor_2","bufferView":2,"byteOffset":0,"componentType":5126,"count":4,"type":"VEC2","max":[1,1],"min":[0,0]},{"name":"accessor_3","bufferView":3,"byteOffset":0,"componentType":5125,"count":6,"type":"SCALAR","max":[3],"min":[0]},{"name":"accessor_4","bufferView":4,"byteOffset":0,"componentType":5126,"count":4,"type":"VEC3","max":[100,0,0],"min":[0,-100,0]},{"name":"accessor_5","bufferView":5,"byteOffset":0,"componentType":5126,"count":3,"type":"SCALAR","max":[16.041],"min":[0]},{"name":"accessor_6","bufferView":5,"byteOffset":12,"componentType":5126,"count":3,"type":"VEC3"},{"name":"accessor_7","bufferView":6,"byteOffset":0,"componentType":5126,"count":74,"type":"SCALAR","max":[3.041],"min":[0]},{"name":"accessor_8","bufferView":6,"byteOffset":296,"componentType":5126,"count":74,"type":"VEC3"},{"name":"accessor_9","bufferView":7,"byteOffset":0,"componentType":5126,"count":3,"type":"SCALAR","max":[16.041],"min":[0]},{"name":"accessor_10","bufferView":7,"byteOffset":12,"componentType":5126,"count":3,"type":"VEC3"},{"name":"accessor_11","bufferView":8,"byteOffset":0,"componentType":5126,"count":3,"type":"SCALAR","max":[16.041],"min":[0]},{"name":"accessor_12","bufferView":8,"byteOffset":12,"componentType":5126,"count":3,"type":"VEC3"},{"name":"accessor_13","bufferView":9,"byteOffset":0,"componentType":5126,"count":4,"type":"SCALAR","max":[16.041],"min":[0]},{"name":"accessor_14","bufferView":9,"byteOffset":16,"componentType":5126,"count":4,"type":"VEC3"},{"name":"accessor_15","bufferView":10,"byteOffset":0,"componentType":5126,"count":71,"type":"SCALAR","max":[5.958],"min":[0]},{"name":"accessor_16","bufferView":10,"byteOffset":284,"componentType":5126,"count":71,"type":"VEC3"},{"name":"accessor_17","bufferView":11,"byteOffset":0,"componentType":5126,"count":3,"type":"SCALAR","max":[16.041],"min":[0]},{"name":"accessor_18","bufferView":11,"byteOffset":12,"componentType":5126,"count":3,"type":"VEC3"},{"name":"accessor_19","bufferView":12,"byteOffset":0,"componentType":5126,"count":3,"type":"SCALAR","max":[16.041],"min":[0]},{"name":"accessor_20","bufferView":12,"byteOffset":12,"componentType":5126,"count":3,"type":"VEC3"},{"name":"accessor_21","bufferView":13,"byteOffset":0,"componentType":5126,"count":4,"type":"SCALAR","max":[16.041],"min":[0]},{"name":"accessor_22","bufferView":13,"byteOffset":16,"componentType":5126,"count":4,"type":"VEC3"},{"name":"accessor_23","bufferView":14,"byteOffset":0,"componentType":5126,"count":91,"type":"SCALAR","max":[9.708],"min":[0]},{"name":"accessor_24","bufferView":14,"byteOffset":364,"componentType":5126,"count":91,"type":"VEC3"},{"name":"accessor_25","bufferView":15,"byteOffset":0,"componentType":5126,"count":3,"type":"SCALAR","max":[16.041],"min":[0]},{"name":"accessor_26","bufferView":15,"byteOffset":12,"componentType":5126,"count":3,"type":"VEC3"},{"name":"accessor_27","bufferView":16,"byteOffset":0,"componentType":5126,"count":3,"type":"SCALAR","max":[16.041],"min":[0]},{"name":"accessor_28","bufferView":16,"byteOffset":12,"componentType":5126,"count":3,"type":"VEC3"},{"name":"accessor_29","bufferView":17,"byteOffset":0,"componentType":5126,"count":4,"type":"SCALAR","max":[16.041],"min":[0]},{"name":"accessor_30","bufferView":17,"byteOffset":16,"componentType":5126,"count":4,"type":"VEC3"},{"name":"accessor_31","bufferView":18,"byteOffset":0,"componentType":5126,"count":81,"type":"SCALAR","max":[13.041],"min":[0]},{"name":"accessor_32","bufferView":18,"byteOffset":324,"componentType":5126,"count":81,"type":"VEC3"},{"name":"accessor_33","bufferView":19,"byteOffset":0,"componentType":5126,"count":3,"type":"SCALAR","max":[16.041],"min":[0]},{"name":"accessor_34","bufferView":19,"byteOffset":12,"componentType":5126,"count":3,"type":"VEC3"},{"name":"accessor_35","bufferView":20,"byteOffset":0,"componentType":5126,"count":3,"type":"SCALAR","max":[16.041],"min":[0]},{"name":"accessor_36","bufferView":20,"byteOffset":12,"componentType":5126,"count":3,"type":"VEC3"},{"name":"accessor_37","bufferView":21,"byteOffset":0,"componentType":5126,"count":4,"type":"SCALAR","max":[16.041],"min":[0]},{"name":"accessor_38","bufferView":21,"byteOffset":16,"componentType":5126,"count":4,"type":"VEC3"},{"name":"accessor_39","bufferView":22,"byteOffset":0,"componentType":5126,"count":71,"type":"SCALAR","max":[15.958],"min":[0]},{"name":"accessor_40","bufferView":22,"byteOffset":284,"componentType":5126,"count":71,"type":"VEC3"},{"name":"accessor_41","bufferView":23,"byteOffset":0,"componentType":5126,"count":3,"type":"SCALAR","max":[16.041],"min":[0]},{"name":"accessor_42","bufferView":23,"byteOffset":12,"componentType":5126,"count":3,"type":"VEC3"},{"name":"accessor_43","bufferView":24,"byteOffset":0,"componentType":5126,"count":3,"type":"SCALAR","max":[16.041],"min":[0]},{"name":"accessor_44","bufferView":24,"byteOffset":12,"componentType":5126,"count":3,"type":"VEC3"},{"name":"accessor_45","bufferView":25,"byteOffset":0,"componentType":5126,"count":3,"type":"SCALAR","max":[16.041],"min":[0]},{"name":"accessor_46","bufferView":25,"byteOffset":12,"componentType":5126,"count":3,"type":"VEC3"},{"name":"accessor_47","bufferView":26,"byteOffset":0,"componentType":5126,"count":2,"type":"SCALAR","max":[16],"min":[0]},{"name":"accessor_48","bufferView":26,"byteOffset":8,"componentType":5126,"count":2,"type":"VEC3"},{"name":"accessor_49","bufferView":27,"byteOffset":0,"componentType":5126,"count":4,"type":"VEC2","max":[0.666,0.778],"min":[0,0]}],"materials":[{"pbrMetallicRoughness":{"baseColorTexture":{"index":0}},"alphaMode":"MASK","alphaCutoff":0.76,"doubleSided":true},{"pbrMetallicRoughness":{"baseColorFactor":[1,1,1,0.9]},"alphaMode":"MASK","alphaCutoff":1,"doubleSided":false}],"samplers":[{"magFilter":9729,"minFilter":9729,"wrapS":33071,"wrapT":33071}],"textures":[{"sampler":0,"source":0}],"images":[{"uri":"Scene_1_anAtlas_0.png"}],"asset":{"version":"2.0","generator":"AdobeAnimateCC2019"}}